# xmcd CD database file
#
# Track frame offsets:
#	150
#	20238
#	33090
#	50887
#	63495
#	84302
#	108696
#	123300
#	139371
#	152402
#	170446
#	186805
#	201067
#
# Disc length: 3038 seconds
#
# Revision: 0
# Processed by: cddbd v1.5.2PL0 Copyright (c) Steve Scherf et al.
# Submitted via: CDex 1.70beta2
#
DISCID=b50bdc0d
DTITLE=Various artist - High Society Presents Passion 2
DYEAR=1900
DGENRE=New Age
TTITLE0=Senorita
TTITLE1=Orfeu Negro
TTITLE2=La Paloma
TTITLE3=Lola Lola
TTITLE4=Sometimes When It Rains
TTITLE5=Ave Maria
TTITLE6=And I Love Her
TTITLE7=Besame Mucho
TTITLE8=Siboney
TTITLE9=Fragilidad (Fragile)
TTITLE10=Noche De Ronda
TTITLE11=Il Mondo (My World)
TTITLE12=Bolero Fantasy
EXTD=
EXTT0=
EXTT1=
EXTT2=
EXTT3=
EXTT4=
EXTT5=
EXTT6=
EXTT7=
EXTT8=
EXTT9=
EXTT10=
EXTT11=
EXTT12=
PLAYORDER=
